<mxfile host="app.diagrams.net" modified="2024-04-01T17:47:54.326Z" agent="Mozilla/5.0 (Windows NT 10.0; Win64; x64) AppleWebKit/537.36 (KHTML, like Gecko) Chrome/122.0.0.0 Safari/537.36 Edg/122.0.0.0" etag="1Fn2l4rbZMKRtyu_Iex6" version="24.2.1" type="github">
  <diagram id="R2lEEEUBdFMjLlhIrx00" name="Page-1">
    <mxGraphModel dx="2185" dy="2073" grid="1" gridSize="10" guides="1" tooltips="1" connect="1" arrows="1" fold="1" page="1" pageScale="1" pageWidth="850" pageHeight="1100" math="0" shadow="0" extFonts="Permanent Marker^https://fonts.googleapis.com/css?family=Permanent+Marker">
      <root>
        <mxCell id="0" />
        <mxCell id="1" parent="0" />
        <mxCell id="C-vyLk0tnHw3VtMMgP7b-2" value="Ordenes" style="shape=table;startSize=30;container=1;collapsible=1;childLayout=tableLayout;fixedRows=1;rowLines=0;fontStyle=1;align=center;resizeLast=1;" parent="1" vertex="1">
          <mxGeometry x="465" y="-150" width="250" height="310" as="geometry">
            <mxRectangle x="460" y="50" width="90" height="30" as="alternateBounds" />
          </mxGeometry>
        </mxCell>
        <mxCell id="C-vyLk0tnHw3VtMMgP7b-3" value="" style="shape=partialRectangle;collapsible=0;dropTarget=0;pointerEvents=0;fillColor=none;points=[[0,0.5],[1,0.5]];portConstraint=eastwest;top=0;left=0;right=0;bottom=1;" parent="C-vyLk0tnHw3VtMMgP7b-2" vertex="1">
          <mxGeometry y="30" width="250" height="30" as="geometry" />
        </mxCell>
        <mxCell id="C-vyLk0tnHw3VtMMgP7b-4" value="PK" style="shape=partialRectangle;overflow=hidden;connectable=0;fillColor=none;top=0;left=0;bottom=0;right=0;fontStyle=1;" parent="C-vyLk0tnHw3VtMMgP7b-3" vertex="1">
          <mxGeometry width="30" height="30" as="geometry">
            <mxRectangle width="30" height="30" as="alternateBounds" />
          </mxGeometry>
        </mxCell>
        <mxCell id="C-vyLk0tnHw3VtMMgP7b-5" value="codigo_orden int NOT NULL " style="shape=partialRectangle;overflow=hidden;connectable=0;fillColor=none;top=0;left=0;bottom=0;right=0;align=left;spacingLeft=6;fontStyle=5;" parent="C-vyLk0tnHw3VtMMgP7b-3" vertex="1">
          <mxGeometry x="30" width="220" height="30" as="geometry">
            <mxRectangle width="220" height="30" as="alternateBounds" />
          </mxGeometry>
        </mxCell>
        <mxCell id="C-vyLk0tnHw3VtMMgP7b-6" value="" style="shape=partialRectangle;collapsible=0;dropTarget=0;pointerEvents=0;fillColor=none;points=[[0,0.5],[1,0.5]];portConstraint=eastwest;top=0;left=0;right=0;bottom=0;" parent="C-vyLk0tnHw3VtMMgP7b-2" vertex="1">
          <mxGeometry y="60" width="250" height="30" as="geometry" />
        </mxCell>
        <mxCell id="C-vyLk0tnHw3VtMMgP7b-7" value="FK1" style="shape=partialRectangle;overflow=hidden;connectable=0;fillColor=none;top=0;left=0;bottom=0;right=0;" parent="C-vyLk0tnHw3VtMMgP7b-6" vertex="1">
          <mxGeometry width="30" height="30" as="geometry">
            <mxRectangle width="30" height="30" as="alternateBounds" />
          </mxGeometry>
        </mxCell>
        <mxCell id="C-vyLk0tnHw3VtMMgP7b-8" value="codigo_cliente int NOT NULL" style="shape=partialRectangle;overflow=hidden;connectable=0;fillColor=none;top=0;left=0;bottom=0;right=0;align=left;spacingLeft=6;" parent="C-vyLk0tnHw3VtMMgP7b-6" vertex="1">
          <mxGeometry x="30" width="220" height="30" as="geometry">
            <mxRectangle width="220" height="30" as="alternateBounds" />
          </mxGeometry>
        </mxCell>
        <mxCell id="8FPlwNAsWVfUkaL9veTx-33" value="" style="shape=tableRow;horizontal=0;startSize=0;swimlaneHead=0;swimlaneBody=0;fillColor=none;collapsible=0;dropTarget=0;points=[[0,0.5],[1,0.5]];portConstraint=eastwest;top=0;left=0;right=0;bottom=0;" vertex="1" parent="C-vyLk0tnHw3VtMMgP7b-2">
          <mxGeometry y="90" width="250" height="30" as="geometry" />
        </mxCell>
        <mxCell id="8FPlwNAsWVfUkaL9veTx-34" value="FK" style="shape=partialRectangle;connectable=0;fillColor=none;top=0;left=0;bottom=0;right=0;fontStyle=0;overflow=hidden;whiteSpace=wrap;html=1;" vertex="1" parent="8FPlwNAsWVfUkaL9veTx-33">
          <mxGeometry width="30" height="30" as="geometry">
            <mxRectangle width="30" height="30" as="alternateBounds" />
          </mxGeometry>
        </mxCell>
        <mxCell id="8FPlwNAsWVfUkaL9veTx-35" value="codigo_restaurante int&amp;nbsp; NOT NULL" style="shape=partialRectangle;connectable=0;fillColor=none;top=0;left=0;bottom=0;right=0;align=left;spacingLeft=6;fontStyle=0;overflow=hidden;whiteSpace=wrap;html=1;" vertex="1" parent="8FPlwNAsWVfUkaL9veTx-33">
          <mxGeometry x="30" width="220" height="30" as="geometry">
            <mxRectangle width="220" height="30" as="alternateBounds" />
          </mxGeometry>
        </mxCell>
        <mxCell id="C-vyLk0tnHw3VtMMgP7b-9" value="" style="shape=partialRectangle;collapsible=0;dropTarget=0;pointerEvents=0;fillColor=none;points=[[0,0.5],[1,0.5]];portConstraint=eastwest;top=0;left=0;right=0;bottom=0;" parent="C-vyLk0tnHw3VtMMgP7b-2" vertex="1">
          <mxGeometry y="120" width="250" height="40" as="geometry" />
        </mxCell>
        <mxCell id="C-vyLk0tnHw3VtMMgP7b-10" value="" style="shape=partialRectangle;overflow=hidden;connectable=0;fillColor=none;top=0;left=0;bottom=0;right=0;" parent="C-vyLk0tnHw3VtMMgP7b-9" vertex="1">
          <mxGeometry width="30" height="40" as="geometry">
            <mxRectangle width="30" height="40" as="alternateBounds" />
          </mxGeometry>
        </mxCell>
        <mxCell id="C-vyLk0tnHw3VtMMgP7b-11" value="fecha_ingreso date NOT NULL" style="shape=partialRectangle;overflow=hidden;connectable=0;fillColor=none;top=0;left=0;bottom=0;right=0;align=left;spacingLeft=6;" parent="C-vyLk0tnHw3VtMMgP7b-9" vertex="1">
          <mxGeometry x="30" width="220" height="40" as="geometry">
            <mxRectangle width="220" height="40" as="alternateBounds" />
          </mxGeometry>
        </mxCell>
        <mxCell id="8FPlwNAsWVfUkaL9veTx-144" value="" style="shape=tableRow;horizontal=0;startSize=0;swimlaneHead=0;swimlaneBody=0;fillColor=none;collapsible=0;dropTarget=0;points=[[0,0.5],[1,0.5]];portConstraint=eastwest;top=0;left=0;right=0;bottom=0;strokeColor=default;align=center;verticalAlign=middle;fontFamily=Helvetica;fontSize=12;fontColor=default;fontStyle=1;" vertex="1" parent="C-vyLk0tnHw3VtMMgP7b-2">
          <mxGeometry y="160" width="250" height="20" as="geometry" />
        </mxCell>
        <mxCell id="8FPlwNAsWVfUkaL9veTx-145" value="" style="shape=partialRectangle;connectable=0;fillColor=none;top=0;left=0;bottom=0;right=0;editable=1;overflow=hidden;strokeColor=default;align=center;verticalAlign=middle;fontFamily=Helvetica;fontSize=12;fontColor=default;fontStyle=1;" vertex="1" parent="8FPlwNAsWVfUkaL9veTx-144">
          <mxGeometry width="30" height="20" as="geometry">
            <mxRectangle width="30" height="20" as="alternateBounds" />
          </mxGeometry>
        </mxCell>
        <mxCell id="8FPlwNAsWVfUkaL9veTx-146" value="fecha_hora_entrega date NOT NULL" style="shape=partialRectangle;connectable=0;fillColor=none;top=0;left=0;bottom=0;right=0;align=left;spacingLeft=6;overflow=hidden;strokeColor=default;verticalAlign=middle;fontFamily=Helvetica;fontSize=12;fontColor=default;fontStyle=1;" vertex="1" parent="8FPlwNAsWVfUkaL9veTx-144">
          <mxGeometry x="30" width="220" height="20" as="geometry">
            <mxRectangle width="220" height="20" as="alternateBounds" />
          </mxGeometry>
        </mxCell>
        <mxCell id="8FPlwNAsWVfUkaL9veTx-151" value="" style="shape=tableRow;horizontal=0;startSize=0;swimlaneHead=0;swimlaneBody=0;fillColor=none;collapsible=0;dropTarget=0;points=[[0,0.5],[1,0.5]];portConstraint=eastwest;top=0;left=0;right=0;bottom=0;strokeColor=default;align=center;verticalAlign=middle;fontFamily=Helvetica;fontSize=12;fontColor=default;fontStyle=1;" vertex="1" parent="C-vyLk0tnHw3VtMMgP7b-2">
          <mxGeometry y="180" width="250" height="30" as="geometry" />
        </mxCell>
        <mxCell id="8FPlwNAsWVfUkaL9veTx-152" value="" style="shape=partialRectangle;connectable=0;fillColor=none;top=0;left=0;bottom=0;right=0;editable=1;overflow=hidden;strokeColor=default;align=center;verticalAlign=middle;fontFamily=Helvetica;fontSize=12;fontColor=default;fontStyle=1;" vertex="1" parent="8FPlwNAsWVfUkaL9veTx-151">
          <mxGeometry width="30" height="30" as="geometry">
            <mxRectangle width="30" height="30" as="alternateBounds" />
          </mxGeometry>
        </mxCell>
        <mxCell id="8FPlwNAsWVfUkaL9veTx-153" value="confirmacion int NOT NULL" style="shape=partialRectangle;connectable=0;fillColor=none;top=0;left=0;bottom=0;right=0;align=left;spacingLeft=6;overflow=hidden;strokeColor=default;verticalAlign=middle;fontFamily=Helvetica;fontSize=12;fontColor=default;fontStyle=1;" vertex="1" parent="8FPlwNAsWVfUkaL9veTx-151">
          <mxGeometry x="30" width="220" height="30" as="geometry">
            <mxRectangle width="220" height="30" as="alternateBounds" />
          </mxGeometry>
        </mxCell>
        <mxCell id="8FPlwNAsWVfUkaL9veTx-171" value="" style="shape=tableRow;horizontal=0;startSize=0;swimlaneHead=0;swimlaneBody=0;fillColor=none;collapsible=0;dropTarget=0;points=[[0,0.5],[1,0.5]];portConstraint=eastwest;top=0;left=0;right=0;bottom=0;strokeColor=default;align=center;verticalAlign=middle;fontFamily=Helvetica;fontSize=12;fontColor=default;fontStyle=1;" vertex="1" parent="C-vyLk0tnHw3VtMMgP7b-2">
          <mxGeometry y="210" width="250" height="30" as="geometry" />
        </mxCell>
        <mxCell id="8FPlwNAsWVfUkaL9veTx-172" value="FK" style="shape=partialRectangle;connectable=0;fillColor=none;top=0;left=0;bottom=0;right=0;fontStyle=0;overflow=hidden;whiteSpace=wrap;html=1;strokeColor=default;align=center;verticalAlign=middle;fontFamily=Helvetica;fontSize=12;fontColor=default;" vertex="1" parent="8FPlwNAsWVfUkaL9veTx-171">
          <mxGeometry width="30" height="30" as="geometry">
            <mxRectangle width="30" height="30" as="alternateBounds" />
          </mxGeometry>
        </mxCell>
        <mxCell id="8FPlwNAsWVfUkaL9veTx-173" value="codigo_estado int NOT NULL" style="shape=partialRectangle;connectable=0;fillColor=none;top=0;left=0;bottom=0;right=0;align=left;spacingLeft=6;fontStyle=0;overflow=hidden;whiteSpace=wrap;html=1;strokeColor=default;verticalAlign=middle;fontFamily=Helvetica;fontSize=12;fontColor=default;" vertex="1" parent="8FPlwNAsWVfUkaL9veTx-171">
          <mxGeometry x="30" width="220" height="30" as="geometry">
            <mxRectangle width="220" height="30" as="alternateBounds" />
          </mxGeometry>
        </mxCell>
        <mxCell id="8FPlwNAsWVfUkaL9veTx-184" value="" style="shape=tableRow;horizontal=0;startSize=0;swimlaneHead=0;swimlaneBody=0;fillColor=none;collapsible=0;dropTarget=0;points=[[0,0.5],[1,0.5]];portConstraint=eastwest;top=0;left=0;right=0;bottom=0;strokeColor=default;align=center;verticalAlign=middle;fontFamily=Helvetica;fontSize=12;fontColor=default;fontStyle=1;" vertex="1" parent="C-vyLk0tnHw3VtMMgP7b-2">
          <mxGeometry y="240" width="250" height="30" as="geometry" />
        </mxCell>
        <mxCell id="8FPlwNAsWVfUkaL9veTx-185" value="FK" style="shape=partialRectangle;connectable=0;fillColor=none;top=0;left=0;bottom=0;right=0;fontStyle=0;overflow=hidden;whiteSpace=wrap;html=1;strokeColor=default;align=center;verticalAlign=middle;fontFamily=Helvetica;fontSize=12;fontColor=default;" vertex="1" parent="8FPlwNAsWVfUkaL9veTx-184">
          <mxGeometry width="30" height="30" as="geometry">
            <mxRectangle width="30" height="30" as="alternateBounds" />
          </mxGeometry>
        </mxCell>
        <mxCell id="8FPlwNAsWVfUkaL9veTx-186" value="codigo_estado_pago&amp;nbsp;&amp;nbsp;int NOT NULL" style="shape=partialRectangle;connectable=0;fillColor=none;top=0;left=0;bottom=0;right=0;align=left;spacingLeft=6;fontStyle=0;overflow=hidden;whiteSpace=wrap;html=1;strokeColor=default;verticalAlign=middle;fontFamily=Helvetica;fontSize=12;fontColor=default;" vertex="1" parent="8FPlwNAsWVfUkaL9veTx-184">
          <mxGeometry x="30" width="220" height="30" as="geometry">
            <mxRectangle width="220" height="30" as="alternateBounds" />
          </mxGeometry>
        </mxCell>
        <mxCell id="8FPlwNAsWVfUkaL9veTx-197" value="" style="shape=tableRow;horizontal=0;startSize=0;swimlaneHead=0;swimlaneBody=0;fillColor=none;collapsible=0;dropTarget=0;points=[[0,0.5],[1,0.5]];portConstraint=eastwest;top=0;left=0;right=0;bottom=0;strokeColor=default;align=center;verticalAlign=middle;fontFamily=Helvetica;fontSize=12;fontColor=default;fontStyle=1;" vertex="1" parent="C-vyLk0tnHw3VtMMgP7b-2">
          <mxGeometry y="270" width="250" height="30" as="geometry" />
        </mxCell>
        <mxCell id="8FPlwNAsWVfUkaL9veTx-198" value="FK" style="shape=partialRectangle;connectable=0;fillColor=none;top=0;left=0;bottom=0;right=0;fontStyle=0;overflow=hidden;whiteSpace=wrap;html=1;strokeColor=default;align=center;verticalAlign=middle;fontFamily=Helvetica;fontSize=12;fontColor=default;" vertex="1" parent="8FPlwNAsWVfUkaL9veTx-197">
          <mxGeometry width="30" height="30" as="geometry">
            <mxRectangle width="30" height="30" as="alternateBounds" />
          </mxGeometry>
        </mxCell>
        <mxCell id="8FPlwNAsWVfUkaL9veTx-199" value="codigo_tipo_pago&amp;nbsp;&amp;nbsp;int NOT NULL" style="shape=partialRectangle;connectable=0;fillColor=none;top=0;left=0;bottom=0;right=0;align=left;spacingLeft=6;fontStyle=0;overflow=hidden;whiteSpace=wrap;html=1;strokeColor=default;verticalAlign=middle;fontFamily=Helvetica;fontSize=12;fontColor=default;" vertex="1" parent="8FPlwNAsWVfUkaL9veTx-197">
          <mxGeometry x="30" width="220" height="30" as="geometry">
            <mxRectangle width="220" height="30" as="alternateBounds" />
          </mxGeometry>
        </mxCell>
        <mxCell id="C-vyLk0tnHw3VtMMgP7b-23" value="Clientes" style="shape=table;startSize=30;container=1;collapsible=1;childLayout=tableLayout;fixedRows=1;rowLines=0;fontStyle=1;align=center;resizeLast=1;" parent="1" vertex="1">
          <mxGeometry x="140" y="50" width="210" height="150" as="geometry">
            <mxRectangle x="140" y="50" width="80" height="30" as="alternateBounds" />
          </mxGeometry>
        </mxCell>
        <mxCell id="C-vyLk0tnHw3VtMMgP7b-24" value="" style="shape=partialRectangle;collapsible=0;dropTarget=0;pointerEvents=0;fillColor=none;points=[[0,0.5],[1,0.5]];portConstraint=eastwest;top=0;left=0;right=0;bottom=1;" parent="C-vyLk0tnHw3VtMMgP7b-23" vertex="1">
          <mxGeometry y="30" width="210" height="30" as="geometry" />
        </mxCell>
        <mxCell id="C-vyLk0tnHw3VtMMgP7b-25" value="PK" style="shape=partialRectangle;overflow=hidden;connectable=0;fillColor=none;top=0;left=0;bottom=0;right=0;fontStyle=1;" parent="C-vyLk0tnHw3VtMMgP7b-24" vertex="1">
          <mxGeometry width="30" height="30" as="geometry">
            <mxRectangle width="30" height="30" as="alternateBounds" />
          </mxGeometry>
        </mxCell>
        <mxCell id="C-vyLk0tnHw3VtMMgP7b-26" value="codigo_cliente int NOT NULL " style="shape=partialRectangle;overflow=hidden;connectable=0;fillColor=none;top=0;left=0;bottom=0;right=0;align=left;spacingLeft=6;fontStyle=5;" parent="C-vyLk0tnHw3VtMMgP7b-24" vertex="1">
          <mxGeometry x="30" width="180" height="30" as="geometry">
            <mxRectangle width="180" height="30" as="alternateBounds" />
          </mxGeometry>
        </mxCell>
        <mxCell id="C-vyLk0tnHw3VtMMgP7b-27" value="" style="shape=partialRectangle;collapsible=0;dropTarget=0;pointerEvents=0;fillColor=none;points=[[0,0.5],[1,0.5]];portConstraint=eastwest;top=0;left=0;right=0;bottom=0;" parent="C-vyLk0tnHw3VtMMgP7b-23" vertex="1">
          <mxGeometry y="60" width="210" height="30" as="geometry" />
        </mxCell>
        <mxCell id="C-vyLk0tnHw3VtMMgP7b-28" value="" style="shape=partialRectangle;overflow=hidden;connectable=0;fillColor=none;top=0;left=0;bottom=0;right=0;" parent="C-vyLk0tnHw3VtMMgP7b-27" vertex="1">
          <mxGeometry width="30" height="30" as="geometry">
            <mxRectangle width="30" height="30" as="alternateBounds" />
          </mxGeometry>
        </mxCell>
        <mxCell id="C-vyLk0tnHw3VtMMgP7b-29" value="numero_celular int NOT NULL" style="shape=partialRectangle;overflow=hidden;connectable=0;fillColor=none;top=0;left=0;bottom=0;right=0;align=left;spacingLeft=6;" parent="C-vyLk0tnHw3VtMMgP7b-27" vertex="1">
          <mxGeometry x="30" width="180" height="30" as="geometry">
            <mxRectangle width="180" height="30" as="alternateBounds" />
          </mxGeometry>
        </mxCell>
        <mxCell id="8FPlwNAsWVfUkaL9veTx-3" value="" style="shape=tableRow;horizontal=0;startSize=0;swimlaneHead=0;swimlaneBody=0;fillColor=none;collapsible=0;dropTarget=0;points=[[0,0.5],[1,0.5]];portConstraint=eastwest;top=0;left=0;right=0;bottom=0;" vertex="1" parent="C-vyLk0tnHw3VtMMgP7b-23">
          <mxGeometry y="90" width="210" height="30" as="geometry" />
        </mxCell>
        <mxCell id="8FPlwNAsWVfUkaL9veTx-4" value="" style="shape=partialRectangle;connectable=0;fillColor=none;top=0;left=0;bottom=0;right=0;editable=1;overflow=hidden;" vertex="1" parent="8FPlwNAsWVfUkaL9veTx-3">
          <mxGeometry width="30" height="30" as="geometry">
            <mxRectangle width="30" height="30" as="alternateBounds" />
          </mxGeometry>
        </mxCell>
        <mxCell id="8FPlwNAsWVfUkaL9veTx-5" value="codigo_area int  NOT NULL" style="shape=partialRectangle;connectable=0;fillColor=none;top=0;left=0;bottom=0;right=0;align=left;spacingLeft=6;overflow=hidden;" vertex="1" parent="8FPlwNAsWVfUkaL9veTx-3">
          <mxGeometry x="30" width="180" height="30" as="geometry">
            <mxRectangle width="180" height="30" as="alternateBounds" />
          </mxGeometry>
        </mxCell>
        <mxCell id="8FPlwNAsWVfUkaL9veTx-6" value="Clientes_Dueno_Cafeteria" style="shape=table;startSize=30;container=1;collapsible=1;childLayout=tableLayout;fixedRows=1;rowLines=0;fontStyle=1;align=center;resizeLast=1;" vertex="1" parent="1">
          <mxGeometry x="110" y="270" width="250" height="130" as="geometry">
            <mxRectangle x="110" y="270" width="180" height="30" as="alternateBounds" />
          </mxGeometry>
        </mxCell>
        <mxCell id="8FPlwNAsWVfUkaL9veTx-7" value="" style="shape=partialRectangle;collapsible=0;dropTarget=0;pointerEvents=0;fillColor=none;points=[[0,0.5],[1,0.5]];portConstraint=eastwest;top=0;left=0;right=0;bottom=1;" vertex="1" parent="8FPlwNAsWVfUkaL9veTx-6">
          <mxGeometry y="30" width="250" height="30" as="geometry" />
        </mxCell>
        <mxCell id="8FPlwNAsWVfUkaL9veTx-8" value="PK" style="shape=partialRectangle;overflow=hidden;connectable=0;fillColor=none;top=0;left=0;bottom=0;right=0;fontStyle=1;" vertex="1" parent="8FPlwNAsWVfUkaL9veTx-7">
          <mxGeometry width="30" height="30" as="geometry">
            <mxRectangle width="30" height="30" as="alternateBounds" />
          </mxGeometry>
        </mxCell>
        <mxCell id="8FPlwNAsWVfUkaL9veTx-9" value="codigo_cliente_dueno int NOT NULL" style="shape=partialRectangle;overflow=hidden;connectable=0;fillColor=none;top=0;left=0;bottom=0;right=0;align=left;spacingLeft=6;fontStyle=5;" vertex="1" parent="8FPlwNAsWVfUkaL9veTx-7">
          <mxGeometry x="30" width="220" height="30" as="geometry">
            <mxRectangle width="220" height="30" as="alternateBounds" />
          </mxGeometry>
        </mxCell>
        <mxCell id="8FPlwNAsWVfUkaL9veTx-10" value="" style="shape=partialRectangle;collapsible=0;dropTarget=0;pointerEvents=0;fillColor=none;points=[[0,0.5],[1,0.5]];portConstraint=eastwest;top=0;left=0;right=0;bottom=0;" vertex="1" parent="8FPlwNAsWVfUkaL9veTx-6">
          <mxGeometry y="60" width="250" height="30" as="geometry" />
        </mxCell>
        <mxCell id="8FPlwNAsWVfUkaL9veTx-11" value="FK1" style="shape=partialRectangle;overflow=hidden;connectable=0;fillColor=none;top=0;left=0;bottom=0;right=0;" vertex="1" parent="8FPlwNAsWVfUkaL9veTx-10">
          <mxGeometry width="30" height="30" as="geometry">
            <mxRectangle width="30" height="30" as="alternateBounds" />
          </mxGeometry>
        </mxCell>
        <mxCell id="8FPlwNAsWVfUkaL9veTx-12" value="" style="shape=partialRectangle;overflow=hidden;connectable=0;fillColor=none;top=0;left=0;bottom=0;right=0;align=left;spacingLeft=6;" vertex="1" parent="8FPlwNAsWVfUkaL9veTx-10">
          <mxGeometry x="30" width="220" height="30" as="geometry">
            <mxRectangle width="220" height="30" as="alternateBounds" />
          </mxGeometry>
        </mxCell>
        <mxCell id="8FPlwNAsWVfUkaL9veTx-13" value="" style="shape=partialRectangle;collapsible=0;dropTarget=0;pointerEvents=0;fillColor=none;points=[[0,0.5],[1,0.5]];portConstraint=eastwest;top=0;left=0;right=0;bottom=0;" vertex="1" parent="8FPlwNAsWVfUkaL9veTx-6">
          <mxGeometry y="90" width="250" height="30" as="geometry" />
        </mxCell>
        <mxCell id="8FPlwNAsWVfUkaL9veTx-14" value="" style="shape=partialRectangle;overflow=hidden;connectable=0;fillColor=none;top=0;left=0;bottom=0;right=0;" vertex="1" parent="8FPlwNAsWVfUkaL9veTx-13">
          <mxGeometry width="30" height="30" as="geometry">
            <mxRectangle width="30" height="30" as="alternateBounds" />
          </mxGeometry>
        </mxCell>
        <mxCell id="8FPlwNAsWVfUkaL9veTx-15" value="" style="shape=partialRectangle;overflow=hidden;connectable=0;fillColor=none;top=0;left=0;bottom=0;right=0;align=left;spacingLeft=6;" vertex="1" parent="8FPlwNAsWVfUkaL9veTx-13">
          <mxGeometry x="30" width="220" height="30" as="geometry">
            <mxRectangle width="220" height="30" as="alternateBounds" />
          </mxGeometry>
        </mxCell>
        <mxCell id="8FPlwNAsWVfUkaL9veTx-16" value="Menus" style="shape=table;startSize=50;container=1;collapsible=1;childLayout=tableLayout;fixedRows=1;rowLines=0;fontStyle=1;align=center;resizeLast=1;html=1;" vertex="1" parent="1">
          <mxGeometry x="455" y="475" width="270" height="150" as="geometry">
            <mxRectangle x="370" y="430" width="80" height="40" as="alternateBounds" />
          </mxGeometry>
        </mxCell>
        <mxCell id="8FPlwNAsWVfUkaL9veTx-17" value="" style="shape=tableRow;horizontal=0;startSize=0;swimlaneHead=0;swimlaneBody=0;fillColor=none;collapsible=0;dropTarget=0;points=[[0,0.5],[1,0.5]];portConstraint=eastwest;top=0;left=0;right=0;bottom=1;" vertex="1" parent="8FPlwNAsWVfUkaL9veTx-16">
          <mxGeometry y="50" width="270" height="40" as="geometry" />
        </mxCell>
        <mxCell id="8FPlwNAsWVfUkaL9veTx-18" value="PK" style="shape=partialRectangle;connectable=0;fillColor=none;top=0;left=0;bottom=0;right=0;fontStyle=1;overflow=hidden;whiteSpace=wrap;html=1;" vertex="1" parent="8FPlwNAsWVfUkaL9veTx-17">
          <mxGeometry width="30" height="40" as="geometry">
            <mxRectangle width="30" height="40" as="alternateBounds" />
          </mxGeometry>
        </mxCell>
        <mxCell id="8FPlwNAsWVfUkaL9veTx-19" value="codigo_menu int NOT NULL" style="shape=partialRectangle;connectable=0;fillColor=none;top=0;left=0;bottom=0;right=0;align=left;spacingLeft=6;fontStyle=5;overflow=hidden;whiteSpace=wrap;html=1;" vertex="1" parent="8FPlwNAsWVfUkaL9veTx-17">
          <mxGeometry x="30" width="240" height="40" as="geometry">
            <mxRectangle width="240" height="40" as="alternateBounds" />
          </mxGeometry>
        </mxCell>
        <mxCell id="8FPlwNAsWVfUkaL9veTx-44" value="" style="shape=tableRow;horizontal=0;startSize=0;swimlaneHead=0;swimlaneBody=0;fillColor=none;collapsible=0;dropTarget=0;points=[[0,0.5],[1,0.5]];portConstraint=eastwest;top=0;left=0;right=0;bottom=0;" vertex="1" parent="8FPlwNAsWVfUkaL9veTx-16">
          <mxGeometry y="90" width="270" height="30" as="geometry" />
        </mxCell>
        <mxCell id="8FPlwNAsWVfUkaL9veTx-45" value="FK1" style="shape=partialRectangle;connectable=0;fillColor=none;top=0;left=0;bottom=0;right=0;fontStyle=0;overflow=hidden;whiteSpace=wrap;html=1;" vertex="1" parent="8FPlwNAsWVfUkaL9veTx-44">
          <mxGeometry width="30" height="30" as="geometry">
            <mxRectangle width="30" height="30" as="alternateBounds" />
          </mxGeometry>
        </mxCell>
        <mxCell id="8FPlwNAsWVfUkaL9veTx-46" value="codigo_restaurante int NOT NULL" style="shape=partialRectangle;connectable=0;fillColor=none;top=0;left=0;bottom=0;right=0;align=left;spacingLeft=6;fontStyle=0;overflow=hidden;whiteSpace=wrap;html=1;" vertex="1" parent="8FPlwNAsWVfUkaL9veTx-44">
          <mxGeometry x="30" width="240" height="30" as="geometry">
            <mxRectangle width="240" height="30" as="alternateBounds" />
          </mxGeometry>
        </mxCell>
        <mxCell id="8FPlwNAsWVfUkaL9veTx-47" value="" style="shape=tableRow;horizontal=0;startSize=0;swimlaneHead=0;swimlaneBody=0;fillColor=none;collapsible=0;dropTarget=0;points=[[0,0.5],[1,0.5]];portConstraint=eastwest;top=0;left=0;right=0;bottom=0;" vertex="1" parent="8FPlwNAsWVfUkaL9veTx-16">
          <mxGeometry y="120" width="270" height="30" as="geometry" />
        </mxCell>
        <mxCell id="8FPlwNAsWVfUkaL9veTx-48" value="FK2" style="shape=partialRectangle;connectable=0;fillColor=none;top=0;left=0;bottom=0;right=0;fontStyle=0;overflow=hidden;whiteSpace=wrap;html=1;" vertex="1" parent="8FPlwNAsWVfUkaL9veTx-47">
          <mxGeometry width="30" height="30" as="geometry">
            <mxRectangle width="30" height="30" as="alternateBounds" />
          </mxGeometry>
        </mxCell>
        <mxCell id="8FPlwNAsWVfUkaL9veTx-49" value="codigo_tipo_menu int&amp;nbsp; NOT NULL" style="shape=partialRectangle;connectable=0;fillColor=none;top=0;left=0;bottom=0;right=0;align=left;spacingLeft=6;fontStyle=0;overflow=hidden;whiteSpace=wrap;html=1;" vertex="1" parent="8FPlwNAsWVfUkaL9veTx-47">
          <mxGeometry x="30" width="240" height="30" as="geometry">
            <mxRectangle width="240" height="30" as="alternateBounds" />
          </mxGeometry>
        </mxCell>
        <mxCell id="8FPlwNAsWVfUkaL9veTx-37" value="" style="edgeStyle=entityRelationEdgeStyle;fontSize=12;html=1;endArrow=ERoneToMany;rounded=0;" edge="1" parent="1" source="8FPlwNAsWVfUkaL9veTx-89" target="8FPlwNAsWVfUkaL9veTx-33">
          <mxGeometry width="100" height="100" relative="1" as="geometry">
            <mxPoint x="425" y="550" as="sourcePoint" />
            <mxPoint x="395" y="310" as="targetPoint" />
            <Array as="points">
              <mxPoint x="365" y="430" />
              <mxPoint x="365" y="375" />
              <mxPoint x="450" y="430" />
              <mxPoint x="560" y="190" />
            </Array>
          </mxGeometry>
        </mxCell>
        <mxCell id="8FPlwNAsWVfUkaL9veTx-41" value="&amp;nbsp;" style="edgeLabel;html=1;align=center;verticalAlign=middle;resizable=0;points=[];" vertex="1" connectable="0" parent="8FPlwNAsWVfUkaL9veTx-37">
          <mxGeometry x="0.0296" y="-3" relative="1" as="geometry">
            <mxPoint as="offset" />
          </mxGeometry>
        </mxCell>
        <mxCell id="8FPlwNAsWVfUkaL9veTx-40" value="" style="edgeStyle=entityRelationEdgeStyle;fontSize=12;html=1;endArrow=ERoneToMany;rounded=0;entryX=0;entryY=0.5;entryDx=0;entryDy=0;" edge="1" parent="1" source="C-vyLk0tnHw3VtMMgP7b-24" target="C-vyLk0tnHw3VtMMgP7b-6">
          <mxGeometry width="100" height="100" relative="1" as="geometry">
            <mxPoint x="210" y="410" as="sourcePoint" />
            <mxPoint x="310" y="310" as="targetPoint" />
          </mxGeometry>
        </mxCell>
        <mxCell id="8FPlwNAsWVfUkaL9veTx-42" value="" style="edgeStyle=entityRelationEdgeStyle;fontSize=12;html=1;endArrow=ERoneToMany;rounded=0;" edge="1" parent="1" source="8FPlwNAsWVfUkaL9veTx-7" target="8FPlwNAsWVfUkaL9veTx-101">
          <mxGeometry width="100" height="100" relative="1" as="geometry">
            <mxPoint x="610" y="477.5" as="sourcePoint" />
            <mxPoint x="620" y="282.5" as="targetPoint" />
            <Array as="points">
              <mxPoint x="610" y="427.5" />
            </Array>
          </mxGeometry>
        </mxCell>
        <mxCell id="8FPlwNAsWVfUkaL9veTx-50" value="" style="edgeStyle=entityRelationEdgeStyle;fontSize=12;html=1;endArrow=ERoneToMany;rounded=0;exitX=1;exitY=0.5;exitDx=0;exitDy=0;" edge="1" parent="1" source="8FPlwNAsWVfUkaL9veTx-89" target="8FPlwNAsWVfUkaL9veTx-44">
          <mxGeometry width="100" height="100" relative="1" as="geometry">
            <mxPoint x="530" y="425" as="sourcePoint" />
            <mxPoint x="610" y="580" as="targetPoint" />
          </mxGeometry>
        </mxCell>
        <mxCell id="8FPlwNAsWVfUkaL9veTx-88" value="Restaurantes" style="shape=table;startSize=30;container=1;collapsible=1;childLayout=tableLayout;fixedRows=1;rowLines=0;fontStyle=1;align=center;resizeLast=1;html=1;strokeColor=default;verticalAlign=middle;fontFamily=Helvetica;fontSize=12;fontColor=default;fillColor=default;" vertex="1" parent="1">
          <mxGeometry x="460" y="245" width="265" height="120" as="geometry" />
        </mxCell>
        <mxCell id="8FPlwNAsWVfUkaL9veTx-89" value="" style="shape=tableRow;horizontal=0;startSize=0;swimlaneHead=0;swimlaneBody=0;fillColor=none;collapsible=0;dropTarget=0;points=[[0,0.5],[1,0.5]];portConstraint=eastwest;top=0;left=0;right=0;bottom=1;strokeColor=default;align=center;verticalAlign=middle;fontFamily=Helvetica;fontSize=12;fontColor=default;fontStyle=1;" vertex="1" parent="8FPlwNAsWVfUkaL9veTx-88">
          <mxGeometry y="30" width="265" height="30" as="geometry" />
        </mxCell>
        <mxCell id="8FPlwNAsWVfUkaL9veTx-90" value="PK" style="shape=partialRectangle;connectable=0;fillColor=none;top=0;left=0;bottom=0;right=0;fontStyle=1;overflow=hidden;whiteSpace=wrap;html=1;strokeColor=default;align=center;verticalAlign=middle;fontFamily=Helvetica;fontSize=12;fontColor=default;" vertex="1" parent="8FPlwNAsWVfUkaL9veTx-89">
          <mxGeometry width="30" height="30" as="geometry">
            <mxRectangle width="30" height="30" as="alternateBounds" />
          </mxGeometry>
        </mxCell>
        <mxCell id="8FPlwNAsWVfUkaL9veTx-91" value="codigo_restaurante int NOT NULL" style="shape=partialRectangle;connectable=0;fillColor=none;top=0;left=0;bottom=0;right=0;align=left;spacingLeft=6;fontStyle=5;overflow=hidden;whiteSpace=wrap;html=1;strokeColor=default;verticalAlign=middle;fontFamily=Helvetica;fontSize=12;fontColor=default;" vertex="1" parent="8FPlwNAsWVfUkaL9veTx-89">
          <mxGeometry x="30" width="235" height="30" as="geometry">
            <mxRectangle width="235" height="30" as="alternateBounds" />
          </mxGeometry>
        </mxCell>
        <mxCell id="8FPlwNAsWVfUkaL9veTx-101" value="" style="shape=tableRow;horizontal=0;startSize=0;swimlaneHead=0;swimlaneBody=0;fillColor=none;collapsible=0;dropTarget=0;points=[[0,0.5],[1,0.5]];portConstraint=eastwest;top=0;left=0;right=0;bottom=0;strokeColor=default;align=center;verticalAlign=middle;fontFamily=Helvetica;fontSize=12;fontColor=default;fontStyle=1;" vertex="1" parent="8FPlwNAsWVfUkaL9veTx-88">
          <mxGeometry y="60" width="265" height="30" as="geometry" />
        </mxCell>
        <mxCell id="8FPlwNAsWVfUkaL9veTx-102" value="FK1" style="shape=partialRectangle;connectable=0;fillColor=none;top=0;left=0;bottom=0;right=0;fontStyle=0;overflow=hidden;whiteSpace=wrap;html=1;strokeColor=default;align=center;verticalAlign=middle;fontFamily=Helvetica;fontSize=12;fontColor=default;" vertex="1" parent="8FPlwNAsWVfUkaL9veTx-101">
          <mxGeometry width="30" height="30" as="geometry">
            <mxRectangle width="30" height="30" as="alternateBounds" />
          </mxGeometry>
        </mxCell>
        <mxCell id="8FPlwNAsWVfUkaL9veTx-103" value="codigo_cliente_dueno int NOT NULL" style="shape=partialRectangle;connectable=0;fillColor=none;top=0;left=0;bottom=0;right=0;align=left;spacingLeft=6;fontStyle=0;overflow=hidden;whiteSpace=wrap;html=1;strokeColor=default;verticalAlign=middle;fontFamily=Helvetica;fontSize=12;fontColor=default;" vertex="1" parent="8FPlwNAsWVfUkaL9veTx-101">
          <mxGeometry x="30" width="235" height="30" as="geometry">
            <mxRectangle width="235" height="30" as="alternateBounds" />
          </mxGeometry>
        </mxCell>
        <mxCell id="8FPlwNAsWVfUkaL9veTx-98" value="" style="shape=tableRow;horizontal=0;startSize=0;swimlaneHead=0;swimlaneBody=0;fillColor=none;collapsible=0;dropTarget=0;points=[[0,0.5],[1,0.5]];portConstraint=eastwest;top=0;left=0;right=0;bottom=0;strokeColor=default;align=center;verticalAlign=middle;fontFamily=Helvetica;fontSize=12;fontColor=default;fontStyle=1;" vertex="1" parent="8FPlwNAsWVfUkaL9veTx-88">
          <mxGeometry y="90" width="265" height="30" as="geometry" />
        </mxCell>
        <mxCell id="8FPlwNAsWVfUkaL9veTx-99" value="" style="shape=partialRectangle;connectable=0;fillColor=none;top=0;left=0;bottom=0;right=0;editable=1;overflow=hidden;whiteSpace=wrap;html=1;strokeColor=default;align=center;verticalAlign=middle;fontFamily=Helvetica;fontSize=12;fontColor=default;fontStyle=1;" vertex="1" parent="8FPlwNAsWVfUkaL9veTx-98">
          <mxGeometry width="30" height="30" as="geometry">
            <mxRectangle width="30" height="30" as="alternateBounds" />
          </mxGeometry>
        </mxCell>
        <mxCell id="8FPlwNAsWVfUkaL9veTx-100" value="" style="shape=partialRectangle;connectable=0;fillColor=none;top=0;left=0;bottom=0;right=0;align=left;spacingLeft=6;overflow=hidden;whiteSpace=wrap;html=1;strokeColor=default;verticalAlign=middle;fontFamily=Helvetica;fontSize=12;fontColor=default;fontStyle=1;" vertex="1" parent="8FPlwNAsWVfUkaL9veTx-98">
          <mxGeometry x="30" width="235" height="30" as="geometry">
            <mxRectangle width="235" height="30" as="alternateBounds" />
          </mxGeometry>
        </mxCell>
        <mxCell id="8FPlwNAsWVfUkaL9veTx-114" value="" style="edgeStyle=entityRelationEdgeStyle;fontSize=12;html=1;endArrow=ERmandOne;rounded=0;fontFamily=Helvetica;fontColor=default;fontStyle=1;" edge="1" parent="1" source="8FPlwNAsWVfUkaL9veTx-65" target="8FPlwNAsWVfUkaL9veTx-47">
          <mxGeometry width="100" height="100" relative="1" as="geometry">
            <mxPoint x="350" y="890" as="sourcePoint" />
            <mxPoint x="450" y="790" as="targetPoint" />
          </mxGeometry>
        </mxCell>
        <mxCell id="8FPlwNAsWVfUkaL9veTx-126" value="Menu_Items" style="shape=table;startSize=30;container=1;collapsible=1;childLayout=tableLayout;fixedRows=1;rowLines=0;fontStyle=1;align=center;resizeLast=1;html=1;" vertex="1" parent="1">
          <mxGeometry x="470" y="690" width="270" height="199.99999999999977" as="geometry">
            <mxRectangle x="370" y="430" width="80" height="40" as="alternateBounds" />
          </mxGeometry>
        </mxCell>
        <mxCell id="8FPlwNAsWVfUkaL9veTx-127" value="" style="shape=tableRow;horizontal=0;startSize=0;swimlaneHead=0;swimlaneBody=0;fillColor=none;collapsible=0;dropTarget=0;points=[[0,0.5],[1,0.5]];portConstraint=eastwest;top=0;left=0;right=0;bottom=1;" vertex="1" parent="8FPlwNAsWVfUkaL9veTx-126">
          <mxGeometry y="30" width="270" height="40" as="geometry" />
        </mxCell>
        <mxCell id="8FPlwNAsWVfUkaL9veTx-128" value="PK" style="shape=partialRectangle;connectable=0;fillColor=none;top=0;left=0;bottom=0;right=0;fontStyle=1;overflow=hidden;whiteSpace=wrap;html=1;" vertex="1" parent="8FPlwNAsWVfUkaL9veTx-127">
          <mxGeometry width="30" height="40" as="geometry">
            <mxRectangle width="30" height="40" as="alternateBounds" />
          </mxGeometry>
        </mxCell>
        <mxCell id="8FPlwNAsWVfUkaL9veTx-129" value="codigo_item int NOT NULL" style="shape=partialRectangle;connectable=0;fillColor=none;top=0;left=0;bottom=0;right=0;align=left;spacingLeft=6;fontStyle=5;overflow=hidden;whiteSpace=wrap;html=1;" vertex="1" parent="8FPlwNAsWVfUkaL9veTx-127">
          <mxGeometry x="30" width="240" height="40" as="geometry">
            <mxRectangle width="240" height="40" as="alternateBounds" />
          </mxGeometry>
        </mxCell>
        <mxCell id="8FPlwNAsWVfUkaL9veTx-178" value="" style="shape=tableRow;horizontal=0;startSize=0;swimlaneHead=0;swimlaneBody=0;fillColor=none;collapsible=0;dropTarget=0;points=[[0,0.5],[1,0.5]];portConstraint=eastwest;top=0;left=0;right=0;bottom=0;strokeColor=default;align=center;verticalAlign=middle;fontFamily=Helvetica;fontSize=12;fontColor=default;fontStyle=1;" vertex="1" parent="8FPlwNAsWVfUkaL9veTx-126">
          <mxGeometry y="70" width="270" height="30" as="geometry" />
        </mxCell>
        <mxCell id="8FPlwNAsWVfUkaL9veTx-179" value="FK" style="shape=partialRectangle;connectable=0;fillColor=none;top=0;left=0;bottom=0;right=0;fontStyle=0;overflow=hidden;whiteSpace=wrap;html=1;strokeColor=default;align=center;verticalAlign=middle;fontFamily=Helvetica;fontSize=12;fontColor=default;" vertex="1" parent="8FPlwNAsWVfUkaL9veTx-178">
          <mxGeometry width="30" height="30" as="geometry">
            <mxRectangle width="30" height="30" as="alternateBounds" />
          </mxGeometry>
        </mxCell>
        <mxCell id="8FPlwNAsWVfUkaL9veTx-180" value="codigo_menu int NOT NULL" style="shape=partialRectangle;connectable=0;fillColor=none;top=0;left=0;bottom=0;right=0;align=left;spacingLeft=6;fontStyle=0;overflow=hidden;whiteSpace=wrap;html=1;strokeColor=default;verticalAlign=middle;fontFamily=Helvetica;fontSize=12;fontColor=default;" vertex="1" parent="8FPlwNAsWVfUkaL9veTx-178">
          <mxGeometry x="30" width="240" height="30" as="geometry">
            <mxRectangle width="240" height="30" as="alternateBounds" />
          </mxGeometry>
        </mxCell>
        <mxCell id="8FPlwNAsWVfUkaL9veTx-140" value="" style="shape=tableRow;horizontal=0;startSize=0;swimlaneHead=0;swimlaneBody=0;fillColor=none;collapsible=0;dropTarget=0;points=[[0,0.5],[1,0.5]];portConstraint=eastwest;top=0;left=0;right=0;bottom=0;strokeColor=default;align=center;verticalAlign=middle;fontFamily=Helvetica;fontSize=12;fontColor=default;fontStyle=1;" vertex="1" parent="8FPlwNAsWVfUkaL9veTx-126">
          <mxGeometry y="100" width="270" height="30" as="geometry" />
        </mxCell>
        <mxCell id="8FPlwNAsWVfUkaL9veTx-141" value="FK" style="shape=partialRectangle;connectable=0;fillColor=none;top=0;left=0;bottom=0;right=0;fontStyle=0;overflow=hidden;whiteSpace=wrap;html=1;strokeColor=default;align=center;verticalAlign=middle;fontFamily=Helvetica;fontSize=12;fontColor=default;" vertex="1" parent="8FPlwNAsWVfUkaL9veTx-140">
          <mxGeometry width="30" height="30" as="geometry">
            <mxRectangle width="30" height="30" as="alternateBounds" />
          </mxGeometry>
        </mxCell>
        <mxCell id="8FPlwNAsWVfUkaL9veTx-142" value="codigo_tipo_item int NOT NULL" style="shape=partialRectangle;connectable=0;fillColor=none;top=0;left=0;bottom=0;right=0;align=left;spacingLeft=6;fontStyle=0;overflow=hidden;whiteSpace=wrap;html=1;strokeColor=default;verticalAlign=middle;fontFamily=Helvetica;fontSize=12;fontColor=default;" vertex="1" parent="8FPlwNAsWVfUkaL9veTx-140">
          <mxGeometry x="30" width="240" height="30" as="geometry">
            <mxRectangle width="240" height="30" as="alternateBounds" />
          </mxGeometry>
        </mxCell>
        <mxCell id="8FPlwNAsWVfUkaL9veTx-130" value="" style="shape=tableRow;horizontal=0;startSize=0;swimlaneHead=0;swimlaneBody=0;fillColor=none;collapsible=0;dropTarget=0;points=[[0,0.5],[1,0.5]];portConstraint=eastwest;top=0;left=0;right=0;bottom=0;" vertex="1" parent="8FPlwNAsWVfUkaL9veTx-126">
          <mxGeometry y="130" width="270" height="30" as="geometry" />
        </mxCell>
        <mxCell id="8FPlwNAsWVfUkaL9veTx-131" value="" style="shape=partialRectangle;connectable=0;fillColor=none;top=0;left=0;bottom=0;right=0;fontStyle=0;overflow=hidden;whiteSpace=wrap;html=1;" vertex="1" parent="8FPlwNAsWVfUkaL9veTx-130">
          <mxGeometry width="30" height="30" as="geometry">
            <mxRectangle width="30" height="30" as="alternateBounds" />
          </mxGeometry>
        </mxCell>
        <mxCell id="8FPlwNAsWVfUkaL9veTx-132" value="descripcion varchar(250) NOT NULL" style="shape=partialRectangle;connectable=0;fillColor=none;top=0;left=0;bottom=0;right=0;align=left;spacingLeft=6;fontStyle=0;overflow=hidden;whiteSpace=wrap;html=1;" vertex="1" parent="8FPlwNAsWVfUkaL9veTx-130">
          <mxGeometry x="30" width="240" height="30" as="geometry">
            <mxRectangle width="240" height="30" as="alternateBounds" />
          </mxGeometry>
        </mxCell>
        <mxCell id="8FPlwNAsWVfUkaL9veTx-133" value="" style="shape=tableRow;horizontal=0;startSize=0;swimlaneHead=0;swimlaneBody=0;fillColor=none;collapsible=0;dropTarget=0;points=[[0,0.5],[1,0.5]];portConstraint=eastwest;top=0;left=0;right=0;bottom=0;" vertex="1" parent="8FPlwNAsWVfUkaL9veTx-126">
          <mxGeometry y="160" width="270" height="30" as="geometry" />
        </mxCell>
        <mxCell id="8FPlwNAsWVfUkaL9veTx-134" value="" style="shape=partialRectangle;connectable=0;fillColor=none;top=0;left=0;bottom=0;right=0;fontStyle=0;overflow=hidden;whiteSpace=wrap;html=1;" vertex="1" parent="8FPlwNAsWVfUkaL9veTx-133">
          <mxGeometry width="30" height="30" as="geometry">
            <mxRectangle width="30" height="30" as="alternateBounds" />
          </mxGeometry>
        </mxCell>
        <mxCell id="8FPlwNAsWVfUkaL9veTx-135" value="imagen&amp;nbsp;" style="shape=partialRectangle;connectable=0;fillColor=none;top=0;left=0;bottom=0;right=0;align=left;spacingLeft=6;fontStyle=0;overflow=hidden;whiteSpace=wrap;html=1;" vertex="1" parent="8FPlwNAsWVfUkaL9veTx-133">
          <mxGeometry x="30" width="240" height="30" as="geometry">
            <mxRectangle width="240" height="30" as="alternateBounds" />
          </mxGeometry>
        </mxCell>
        <mxCell id="8FPlwNAsWVfUkaL9veTx-138" value="" style="group" vertex="1" connectable="0" parent="1">
          <mxGeometry x="960" y="690" width="490" height="270" as="geometry" />
        </mxCell>
        <mxCell id="8FPlwNAsWVfUkaL9veTx-116" value="TIpo_Menu_Items" style="shape=table;startSize=30;container=1;collapsible=1;childLayout=tableLayout;fixedRows=1;rowLines=0;fontStyle=1;align=center;resizeLast=1;html=1;" vertex="1" parent="8FPlwNAsWVfUkaL9veTx-138">
          <mxGeometry width="270" height="109.99999999999977" as="geometry">
            <mxRectangle x="370" y="430" width="80" height="40" as="alternateBounds" />
          </mxGeometry>
        </mxCell>
        <mxCell id="8FPlwNAsWVfUkaL9veTx-117" value="" style="shape=tableRow;horizontal=0;startSize=0;swimlaneHead=0;swimlaneBody=0;fillColor=none;collapsible=0;dropTarget=0;points=[[0,0.5],[1,0.5]];portConstraint=eastwest;top=0;left=0;right=0;bottom=1;" vertex="1" parent="8FPlwNAsWVfUkaL9veTx-116">
          <mxGeometry y="30" width="270" height="40" as="geometry" />
        </mxCell>
        <mxCell id="8FPlwNAsWVfUkaL9veTx-118" value="PK" style="shape=partialRectangle;connectable=0;fillColor=none;top=0;left=0;bottom=0;right=0;fontStyle=1;overflow=hidden;whiteSpace=wrap;html=1;" vertex="1" parent="8FPlwNAsWVfUkaL9veTx-117">
          <mxGeometry width="30" height="40" as="geometry">
            <mxRectangle width="30" height="40" as="alternateBounds" />
          </mxGeometry>
        </mxCell>
        <mxCell id="8FPlwNAsWVfUkaL9veTx-119" value="codigo_tipo_item int NOT NULL" style="shape=partialRectangle;connectable=0;fillColor=none;top=0;left=0;bottom=0;right=0;align=left;spacingLeft=6;fontStyle=5;overflow=hidden;whiteSpace=wrap;html=1;" vertex="1" parent="8FPlwNAsWVfUkaL9veTx-117">
          <mxGeometry x="30" width="240" height="40" as="geometry">
            <mxRectangle width="240" height="40" as="alternateBounds" />
          </mxGeometry>
        </mxCell>
        <mxCell id="8FPlwNAsWVfUkaL9veTx-120" value="" style="shape=tableRow;horizontal=0;startSize=0;swimlaneHead=0;swimlaneBody=0;fillColor=none;collapsible=0;dropTarget=0;points=[[0,0.5],[1,0.5]];portConstraint=eastwest;top=0;left=0;right=0;bottom=0;" vertex="1" parent="8FPlwNAsWVfUkaL9veTx-116">
          <mxGeometry y="70" width="270" height="30" as="geometry" />
        </mxCell>
        <mxCell id="8FPlwNAsWVfUkaL9veTx-121" value="" style="shape=partialRectangle;connectable=0;fillColor=none;top=0;left=0;bottom=0;right=0;fontStyle=0;overflow=hidden;whiteSpace=wrap;html=1;" vertex="1" parent="8FPlwNAsWVfUkaL9veTx-120">
          <mxGeometry width="30" height="30" as="geometry">
            <mxRectangle width="30" height="30" as="alternateBounds" />
          </mxGeometry>
        </mxCell>
        <mxCell id="8FPlwNAsWVfUkaL9veTx-122" value="descripcion varchar(250) NOT NULL" style="shape=partialRectangle;connectable=0;fillColor=none;top=0;left=0;bottom=0;right=0;align=left;spacingLeft=6;fontStyle=0;overflow=hidden;whiteSpace=wrap;html=1;" vertex="1" parent="8FPlwNAsWVfUkaL9veTx-120">
          <mxGeometry x="30" width="240" height="30" as="geometry">
            <mxRectangle width="240" height="30" as="alternateBounds" />
          </mxGeometry>
        </mxCell>
        <mxCell id="8FPlwNAsWVfUkaL9veTx-136" value="Tipos:&lt;div&gt;1.- Plato a la carta: Es un plato completo, contendra una descripcion completa como: Carne asada, Carne de res acompanada de frijoles chismol y ensalda.&lt;/div&gt;&lt;div&gt;2. Buffet Item: puede ser una carne o un complemento, el cliente podra elegir segun las reglas definidas.&lt;/div&gt;&lt;div&gt;3.- Extras: chismol, guacamole, tortilla.&lt;/div&gt;" style="shape=note;size=20;whiteSpace=wrap;html=1;strokeColor=default;align=center;verticalAlign=middle;fontFamily=Helvetica;fontSize=12;fontColor=default;fontStyle=1;fillColor=default;" vertex="1" parent="8FPlwNAsWVfUkaL9veTx-138">
          <mxGeometry x="220" y="70" width="270" height="200" as="geometry" />
        </mxCell>
        <mxCell id="8FPlwNAsWVfUkaL9veTx-139" value="" style="group" vertex="1" connectable="0" parent="1">
          <mxGeometry x="110" y="670" width="280" height="190" as="geometry" />
        </mxCell>
        <mxCell id="8FPlwNAsWVfUkaL9veTx-64" value="Tipos_Menu" style="shape=table;startSize=30;container=1;collapsible=1;childLayout=tableLayout;fixedRows=1;rowLines=0;fontStyle=1;align=center;resizeLast=1;" vertex="1" parent="8FPlwNAsWVfUkaL9veTx-139">
          <mxGeometry width="250" height="130" as="geometry">
            <mxRectangle x="480" y="370" width="180" height="30" as="alternateBounds" />
          </mxGeometry>
        </mxCell>
        <mxCell id="8FPlwNAsWVfUkaL9veTx-65" value="" style="shape=partialRectangle;collapsible=0;dropTarget=0;pointerEvents=0;fillColor=none;points=[[0,0.5],[1,0.5]];portConstraint=eastwest;top=0;left=0;right=0;bottom=1;" vertex="1" parent="8FPlwNAsWVfUkaL9veTx-64">
          <mxGeometry y="30" width="250" height="30" as="geometry" />
        </mxCell>
        <mxCell id="8FPlwNAsWVfUkaL9veTx-66" value="PK" style="shape=partialRectangle;overflow=hidden;connectable=0;fillColor=none;top=0;left=0;bottom=0;right=0;fontStyle=1;" vertex="1" parent="8FPlwNAsWVfUkaL9veTx-65">
          <mxGeometry width="30" height="30" as="geometry">
            <mxRectangle width="30" height="30" as="alternateBounds" />
          </mxGeometry>
        </mxCell>
        <mxCell id="8FPlwNAsWVfUkaL9veTx-67" value="codigo_tipo_menu int NOT NULL" style="shape=partialRectangle;overflow=hidden;connectable=0;fillColor=none;top=0;left=0;bottom=0;right=0;align=left;spacingLeft=6;fontStyle=5;" vertex="1" parent="8FPlwNAsWVfUkaL9veTx-65">
          <mxGeometry x="30" width="220" height="30" as="geometry">
            <mxRectangle width="220" height="30" as="alternateBounds" />
          </mxGeometry>
        </mxCell>
        <mxCell id="8FPlwNAsWVfUkaL9veTx-68" value="" style="shape=partialRectangle;collapsible=0;dropTarget=0;pointerEvents=0;fillColor=none;points=[[0,0.5],[1,0.5]];portConstraint=eastwest;top=0;left=0;right=0;bottom=0;" vertex="1" parent="8FPlwNAsWVfUkaL9veTx-64">
          <mxGeometry y="60" width="250" height="30" as="geometry" />
        </mxCell>
        <mxCell id="8FPlwNAsWVfUkaL9veTx-69" value="" style="shape=partialRectangle;overflow=hidden;connectable=0;fillColor=none;top=0;left=0;bottom=0;right=0;" vertex="1" parent="8FPlwNAsWVfUkaL9veTx-68">
          <mxGeometry width="30" height="30" as="geometry">
            <mxRectangle width="30" height="30" as="alternateBounds" />
          </mxGeometry>
        </mxCell>
        <mxCell id="8FPlwNAsWVfUkaL9veTx-70" value="descripcion varchar(50( NOT NULL" style="shape=partialRectangle;overflow=hidden;connectable=0;fillColor=none;top=0;left=0;bottom=0;right=0;align=left;spacingLeft=6;" vertex="1" parent="8FPlwNAsWVfUkaL9veTx-68">
          <mxGeometry x="30" width="220" height="30" as="geometry">
            <mxRectangle width="220" height="30" as="alternateBounds" />
          </mxGeometry>
        </mxCell>
        <mxCell id="8FPlwNAsWVfUkaL9veTx-71" value="" style="shape=partialRectangle;collapsible=0;dropTarget=0;pointerEvents=0;fillColor=none;points=[[0,0.5],[1,0.5]];portConstraint=eastwest;top=0;left=0;right=0;bottom=0;" vertex="1" parent="8FPlwNAsWVfUkaL9veTx-64">
          <mxGeometry y="90" width="250" height="30" as="geometry" />
        </mxCell>
        <mxCell id="8FPlwNAsWVfUkaL9veTx-72" value="" style="shape=partialRectangle;overflow=hidden;connectable=0;fillColor=none;top=0;left=0;bottom=0;right=0;" vertex="1" parent="8FPlwNAsWVfUkaL9veTx-71">
          <mxGeometry width="30" height="30" as="geometry">
            <mxRectangle width="30" height="30" as="alternateBounds" />
          </mxGeometry>
        </mxCell>
        <mxCell id="8FPlwNAsWVfUkaL9veTx-73" value="" style="shape=partialRectangle;overflow=hidden;connectable=0;fillColor=none;top=0;left=0;bottom=0;right=0;align=left;spacingLeft=6;" vertex="1" parent="8FPlwNAsWVfUkaL9veTx-71">
          <mxGeometry x="30" width="220" height="30" as="geometry">
            <mxRectangle width="220" height="30" as="alternateBounds" />
          </mxGeometry>
        </mxCell>
        <mxCell id="8FPlwNAsWVfUkaL9veTx-115" value="Tipos:&amp;nbsp;&lt;div&gt;1.Menu a la carta&amp;nbsp;&lt;/div&gt;&lt;div&gt;2. Menu buffet&lt;/div&gt;" style="shape=note;size=20;whiteSpace=wrap;html=1;strokeColor=default;align=center;verticalAlign=middle;fontFamily=Helvetica;fontSize=12;fontColor=default;fontStyle=1;fillColor=default;" vertex="1" parent="8FPlwNAsWVfUkaL9veTx-139">
          <mxGeometry x="160" y="90" width="120" height="100" as="geometry" />
        </mxCell>
        <mxCell id="8FPlwNAsWVfUkaL9veTx-143" value="" style="edgeStyle=entityRelationEdgeStyle;fontSize=12;html=1;endArrow=ERmandOne;rounded=0;fontFamily=Helvetica;fontColor=default;fontStyle=1;" edge="1" parent="1" source="8FPlwNAsWVfUkaL9veTx-117" target="8FPlwNAsWVfUkaL9veTx-140">
          <mxGeometry width="100" height="100" relative="1" as="geometry">
            <mxPoint x="710" y="930" as="sourcePoint" />
            <mxPoint x="810" y="830" as="targetPoint" />
          </mxGeometry>
        </mxCell>
        <mxCell id="8FPlwNAsWVfUkaL9veTx-174" value="" style="edgeStyle=entityRelationEdgeStyle;fontSize=12;html=1;endArrow=ERmandOne;rounded=0;fontFamily=Helvetica;fontColor=default;fontStyle=1;" edge="1" parent="1" source="8FPlwNAsWVfUkaL9veTx-155" target="8FPlwNAsWVfUkaL9veTx-171">
          <mxGeometry width="100" height="100" relative="1" as="geometry">
            <mxPoint x="900" y="150" as="sourcePoint" />
            <mxPoint x="1000" y="50" as="targetPoint" />
            <Array as="points">
              <mxPoint x="890" y="170" />
            </Array>
          </mxGeometry>
        </mxCell>
        <mxCell id="8FPlwNAsWVfUkaL9veTx-177" value="" style="group" vertex="1" connectable="0" parent="1">
          <mxGeometry x="820" y="-220" width="300" height="185" as="geometry" />
        </mxCell>
        <mxCell id="8FPlwNAsWVfUkaL9veTx-154" value="Estados_ordenes" style="shape=table;startSize=30;container=1;collapsible=1;childLayout=tableLayout;fixedRows=1;rowLines=0;fontStyle=1;align=center;resizeLast=1;" vertex="1" parent="8FPlwNAsWVfUkaL9veTx-177">
          <mxGeometry width="210" height="120" as="geometry">
            <mxRectangle x="140" y="50" width="80" height="30" as="alternateBounds" />
          </mxGeometry>
        </mxCell>
        <mxCell id="8FPlwNAsWVfUkaL9veTx-155" value="" style="shape=partialRectangle;collapsible=0;dropTarget=0;pointerEvents=0;fillColor=none;points=[[0,0.5],[1,0.5]];portConstraint=eastwest;top=0;left=0;right=0;bottom=1;" vertex="1" parent="8FPlwNAsWVfUkaL9veTx-154">
          <mxGeometry y="30" width="210" height="30" as="geometry" />
        </mxCell>
        <mxCell id="8FPlwNAsWVfUkaL9veTx-156" value="PK" style="shape=partialRectangle;overflow=hidden;connectable=0;fillColor=none;top=0;left=0;bottom=0;right=0;fontStyle=1;" vertex="1" parent="8FPlwNAsWVfUkaL9veTx-155">
          <mxGeometry width="30" height="30" as="geometry">
            <mxRectangle width="30" height="30" as="alternateBounds" />
          </mxGeometry>
        </mxCell>
        <mxCell id="8FPlwNAsWVfUkaL9veTx-157" value="codigo_estado int NOT NULL " style="shape=partialRectangle;overflow=hidden;connectable=0;fillColor=none;top=0;left=0;bottom=0;right=0;align=left;spacingLeft=6;fontStyle=5;" vertex="1" parent="8FPlwNAsWVfUkaL9veTx-155">
          <mxGeometry x="30" width="180" height="30" as="geometry">
            <mxRectangle width="180" height="30" as="alternateBounds" />
          </mxGeometry>
        </mxCell>
        <mxCell id="8FPlwNAsWVfUkaL9veTx-165" value="" style="shape=tableRow;horizontal=0;startSize=0;swimlaneHead=0;swimlaneBody=0;fillColor=none;collapsible=0;dropTarget=0;points=[[0,0.5],[1,0.5]];portConstraint=eastwest;top=0;left=0;right=0;bottom=0;strokeColor=default;align=center;verticalAlign=middle;fontFamily=Helvetica;fontSize=12;fontColor=default;fontStyle=1;" vertex="1" parent="8FPlwNAsWVfUkaL9veTx-154">
          <mxGeometry y="60" width="210" height="30" as="geometry" />
        </mxCell>
        <mxCell id="8FPlwNAsWVfUkaL9veTx-166" value="" style="shape=partialRectangle;connectable=0;fillColor=none;top=0;left=0;bottom=0;right=0;editable=1;overflow=hidden;strokeColor=default;align=center;verticalAlign=middle;fontFamily=Helvetica;fontSize=12;fontColor=default;fontStyle=1;" vertex="1" parent="8FPlwNAsWVfUkaL9veTx-165">
          <mxGeometry width="30" height="30" as="geometry">
            <mxRectangle width="30" height="30" as="alternateBounds" />
          </mxGeometry>
        </mxCell>
        <mxCell id="8FPlwNAsWVfUkaL9veTx-167" value="descripcion" style="shape=partialRectangle;connectable=0;fillColor=none;top=0;left=0;bottom=0;right=0;align=left;spacingLeft=6;overflow=hidden;strokeColor=default;verticalAlign=middle;fontFamily=Helvetica;fontSize=12;fontColor=default;fontStyle=1;" vertex="1" parent="8FPlwNAsWVfUkaL9veTx-165">
          <mxGeometry x="30" width="180" height="30" as="geometry">
            <mxRectangle width="180" height="30" as="alternateBounds" />
          </mxGeometry>
        </mxCell>
        <mxCell id="8FPlwNAsWVfUkaL9veTx-176" value="Estados:&lt;div&gt;ingresado&lt;/div&gt;&lt;div&gt;confirmacion recibido&amp;nbsp;&lt;/div&gt;&lt;div&gt;rechazo&lt;/div&gt;&lt;div&gt;listo para entrega&lt;/div&gt;&lt;div&gt;&lt;br&gt;&lt;/div&gt;&lt;div&gt;&lt;br&gt;&lt;/div&gt;" style="shape=note;size=20;whiteSpace=wrap;html=1;strokeColor=default;align=center;verticalAlign=middle;fontFamily=Helvetica;fontSize=12;fontColor=default;fontStyle=1;fillColor=default;" vertex="1" parent="8FPlwNAsWVfUkaL9veTx-177">
          <mxGeometry x="150" y="75" width="150" height="110" as="geometry" />
        </mxCell>
        <mxCell id="8FPlwNAsWVfUkaL9veTx-181" value="" style="edgeStyle=entityRelationEdgeStyle;fontSize=12;html=1;endArrow=none;rounded=0;fontFamily=Helvetica;fontColor=default;fontStyle=1;" edge="1" parent="1" source="8FPlwNAsWVfUkaL9veTx-17" target="8FPlwNAsWVfUkaL9veTx-178">
          <mxGeometry width="100" height="100" relative="1" as="geometry">
            <mxPoint x="570" y="1040" as="sourcePoint" />
            <mxPoint x="670" y="940" as="targetPoint" />
          </mxGeometry>
        </mxCell>
        <mxCell id="8FPlwNAsWVfUkaL9veTx-183" value="validar si no es mejor manejar tabla de relacion menu/item para reutilzar los datos" style="shape=note;size=20;whiteSpace=wrap;html=1;strokeColor=default;align=center;verticalAlign=middle;fontFamily=Helvetica;fontSize=12;fontColor=default;fontStyle=1;fillColor=default;" vertex="1" parent="1">
          <mxGeometry x="770" y="610" width="100" height="100" as="geometry" />
        </mxCell>
        <mxCell id="8FPlwNAsWVfUkaL9veTx-187" value="" style="group" vertex="1" connectable="0" parent="1">
          <mxGeometry x="820" y="15" width="300" height="185" as="geometry" />
        </mxCell>
        <mxCell id="8FPlwNAsWVfUkaL9veTx-188" value="Estados_pago" style="shape=table;startSize=30;container=1;collapsible=1;childLayout=tableLayout;fixedRows=1;rowLines=0;fontStyle=1;align=center;resizeLast=1;" vertex="1" parent="8FPlwNAsWVfUkaL9veTx-187">
          <mxGeometry width="210" height="120" as="geometry">
            <mxRectangle x="140" y="50" width="80" height="30" as="alternateBounds" />
          </mxGeometry>
        </mxCell>
        <mxCell id="8FPlwNAsWVfUkaL9veTx-189" value="" style="shape=partialRectangle;collapsible=0;dropTarget=0;pointerEvents=0;fillColor=none;points=[[0,0.5],[1,0.5]];portConstraint=eastwest;top=0;left=0;right=0;bottom=1;" vertex="1" parent="8FPlwNAsWVfUkaL9veTx-188">
          <mxGeometry y="30" width="210" height="30" as="geometry" />
        </mxCell>
        <mxCell id="8FPlwNAsWVfUkaL9veTx-190" value="PK" style="shape=partialRectangle;overflow=hidden;connectable=0;fillColor=none;top=0;left=0;bottom=0;right=0;fontStyle=1;" vertex="1" parent="8FPlwNAsWVfUkaL9veTx-189">
          <mxGeometry width="30" height="30" as="geometry">
            <mxRectangle width="30" height="30" as="alternateBounds" />
          </mxGeometry>
        </mxCell>
        <mxCell id="8FPlwNAsWVfUkaL9veTx-191" value="codigo_estado_pago int NOT NULL " style="shape=partialRectangle;overflow=hidden;connectable=0;fillColor=none;top=0;left=0;bottom=0;right=0;align=left;spacingLeft=6;fontStyle=5;" vertex="1" parent="8FPlwNAsWVfUkaL9veTx-189">
          <mxGeometry x="30" width="180" height="30" as="geometry">
            <mxRectangle width="180" height="30" as="alternateBounds" />
          </mxGeometry>
        </mxCell>
        <mxCell id="8FPlwNAsWVfUkaL9veTx-192" value="" style="shape=tableRow;horizontal=0;startSize=0;swimlaneHead=0;swimlaneBody=0;fillColor=none;collapsible=0;dropTarget=0;points=[[0,0.5],[1,0.5]];portConstraint=eastwest;top=0;left=0;right=0;bottom=0;strokeColor=default;align=center;verticalAlign=middle;fontFamily=Helvetica;fontSize=12;fontColor=default;fontStyle=1;" vertex="1" parent="8FPlwNAsWVfUkaL9veTx-188">
          <mxGeometry y="60" width="210" height="30" as="geometry" />
        </mxCell>
        <mxCell id="8FPlwNAsWVfUkaL9veTx-193" value="" style="shape=partialRectangle;connectable=0;fillColor=none;top=0;left=0;bottom=0;right=0;editable=1;overflow=hidden;strokeColor=default;align=center;verticalAlign=middle;fontFamily=Helvetica;fontSize=12;fontColor=default;fontStyle=1;" vertex="1" parent="8FPlwNAsWVfUkaL9veTx-192">
          <mxGeometry width="30" height="30" as="geometry">
            <mxRectangle width="30" height="30" as="alternateBounds" />
          </mxGeometry>
        </mxCell>
        <mxCell id="8FPlwNAsWVfUkaL9veTx-194" value="descripcion" style="shape=partialRectangle;connectable=0;fillColor=none;top=0;left=0;bottom=0;right=0;align=left;spacingLeft=6;overflow=hidden;strokeColor=default;verticalAlign=middle;fontFamily=Helvetica;fontSize=12;fontColor=default;fontStyle=1;" vertex="1" parent="8FPlwNAsWVfUkaL9veTx-192">
          <mxGeometry x="30" width="180" height="30" as="geometry">
            <mxRectangle width="180" height="30" as="alternateBounds" />
          </mxGeometry>
        </mxCell>
        <mxCell id="8FPlwNAsWVfUkaL9veTx-195" value="Estados:&lt;div&gt;pendiente&lt;/div&gt;&lt;div&gt;pagado&lt;/div&gt;&lt;div&gt;pignorado - en caso que se maneje el pago en la entrega con TC.&lt;/div&gt;&lt;div&gt;&lt;br&gt;&lt;/div&gt;&lt;div&gt;&lt;br&gt;&lt;/div&gt;" style="shape=note;size=20;whiteSpace=wrap;html=1;strokeColor=default;align=center;verticalAlign=middle;fontFamily=Helvetica;fontSize=12;fontColor=default;fontStyle=1;fillColor=default;" vertex="1" parent="8FPlwNAsWVfUkaL9veTx-187">
          <mxGeometry x="150" y="75" width="150" height="110" as="geometry" />
        </mxCell>
        <mxCell id="8FPlwNAsWVfUkaL9veTx-196" value="" style="edgeStyle=entityRelationEdgeStyle;fontSize=12;html=1;endArrow=ERmandOne;rounded=0;fontFamily=Helvetica;fontColor=default;fontStyle=1;" edge="1" parent="1" source="8FPlwNAsWVfUkaL9veTx-189" target="8FPlwNAsWVfUkaL9veTx-184">
          <mxGeometry width="100" height="100" relative="1" as="geometry">
            <mxPoint x="1030" y="140" as="sourcePoint" />
            <mxPoint x="1130" y="40" as="targetPoint" />
          </mxGeometry>
        </mxCell>
        <mxCell id="8FPlwNAsWVfUkaL9veTx-200" value="" style="group" vertex="1" connectable="0" parent="1">
          <mxGeometry x="830" y="220" width="300" height="185" as="geometry" />
        </mxCell>
        <mxCell id="8FPlwNAsWVfUkaL9veTx-201" value="tipos_pago" style="shape=table;startSize=30;container=1;collapsible=1;childLayout=tableLayout;fixedRows=1;rowLines=0;fontStyle=1;align=center;resizeLast=1;" vertex="1" parent="8FPlwNAsWVfUkaL9veTx-200">
          <mxGeometry width="210" height="120" as="geometry">
            <mxRectangle x="140" y="50" width="80" height="30" as="alternateBounds" />
          </mxGeometry>
        </mxCell>
        <mxCell id="8FPlwNAsWVfUkaL9veTx-202" value="" style="shape=partialRectangle;collapsible=0;dropTarget=0;pointerEvents=0;fillColor=none;points=[[0,0.5],[1,0.5]];portConstraint=eastwest;top=0;left=0;right=0;bottom=1;" vertex="1" parent="8FPlwNAsWVfUkaL9veTx-201">
          <mxGeometry y="30" width="210" height="30" as="geometry" />
        </mxCell>
        <mxCell id="8FPlwNAsWVfUkaL9veTx-203" value="PK" style="shape=partialRectangle;overflow=hidden;connectable=0;fillColor=none;top=0;left=0;bottom=0;right=0;fontStyle=1;" vertex="1" parent="8FPlwNAsWVfUkaL9veTx-202">
          <mxGeometry width="30" height="30" as="geometry">
            <mxRectangle width="30" height="30" as="alternateBounds" />
          </mxGeometry>
        </mxCell>
        <mxCell id="8FPlwNAsWVfUkaL9veTx-204" value="codigo_tipo_pago int NOT NULL " style="shape=partialRectangle;overflow=hidden;connectable=0;fillColor=none;top=0;left=0;bottom=0;right=0;align=left;spacingLeft=6;fontStyle=5;" vertex="1" parent="8FPlwNAsWVfUkaL9veTx-202">
          <mxGeometry x="30" width="180" height="30" as="geometry">
            <mxRectangle width="180" height="30" as="alternateBounds" />
          </mxGeometry>
        </mxCell>
        <mxCell id="8FPlwNAsWVfUkaL9veTx-205" value="" style="shape=tableRow;horizontal=0;startSize=0;swimlaneHead=0;swimlaneBody=0;fillColor=none;collapsible=0;dropTarget=0;points=[[0,0.5],[1,0.5]];portConstraint=eastwest;top=0;left=0;right=0;bottom=0;strokeColor=default;align=center;verticalAlign=middle;fontFamily=Helvetica;fontSize=12;fontColor=default;fontStyle=1;" vertex="1" parent="8FPlwNAsWVfUkaL9veTx-201">
          <mxGeometry y="60" width="210" height="30" as="geometry" />
        </mxCell>
        <mxCell id="8FPlwNAsWVfUkaL9veTx-206" value="" style="shape=partialRectangle;connectable=0;fillColor=none;top=0;left=0;bottom=0;right=0;editable=1;overflow=hidden;strokeColor=default;align=center;verticalAlign=middle;fontFamily=Helvetica;fontSize=12;fontColor=default;fontStyle=1;" vertex="1" parent="8FPlwNAsWVfUkaL9veTx-205">
          <mxGeometry width="30" height="30" as="geometry">
            <mxRectangle width="30" height="30" as="alternateBounds" />
          </mxGeometry>
        </mxCell>
        <mxCell id="8FPlwNAsWVfUkaL9veTx-207" value="descripcion" style="shape=partialRectangle;connectable=0;fillColor=none;top=0;left=0;bottom=0;right=0;align=left;spacingLeft=6;overflow=hidden;strokeColor=default;verticalAlign=middle;fontFamily=Helvetica;fontSize=12;fontColor=default;fontStyle=1;" vertex="1" parent="8FPlwNAsWVfUkaL9veTx-205">
          <mxGeometry x="30" width="180" height="30" as="geometry">
            <mxRectangle width="180" height="30" as="alternateBounds" />
          </mxGeometry>
        </mxCell>
        <mxCell id="8FPlwNAsWVfUkaL9veTx-208" value="Estados:&lt;div&gt;Efectivo&lt;/div&gt;&lt;div&gt;Tarjeta Credito&lt;/div&gt;&lt;div&gt;&lt;br&gt;&lt;/div&gt;&lt;div&gt;&lt;br&gt;&lt;/div&gt;&lt;div&gt;&lt;br&gt;&lt;/div&gt;" style="shape=note;size=20;whiteSpace=wrap;html=1;strokeColor=default;align=center;verticalAlign=middle;fontFamily=Helvetica;fontSize=12;fontColor=default;fontStyle=1;fillColor=default;" vertex="1" parent="8FPlwNAsWVfUkaL9veTx-200">
          <mxGeometry x="150" y="75" width="150" height="110" as="geometry" />
        </mxCell>
        <mxCell id="8FPlwNAsWVfUkaL9veTx-209" value="" style="edgeStyle=entityRelationEdgeStyle;fontSize=12;html=1;endArrow=ERmandOne;rounded=0;fontFamily=Helvetica;fontColor=default;fontStyle=1;exitX=0.344;exitY=0.186;exitDx=0;exitDy=0;exitPerimeter=0;" edge="1" parent="1" source="8FPlwNAsWVfUkaL9veTx-202" target="8FPlwNAsWVfUkaL9veTx-197">
          <mxGeometry width="100" height="100" relative="1" as="geometry">
            <mxPoint x="800" y="430" as="sourcePoint" />
            <mxPoint x="900" y="330" as="targetPoint" />
          </mxGeometry>
        </mxCell>
      </root>
    </mxGraphModel>
  </diagram>
</mxfile>
